<svg id="visual" viewBox="0 0 960 540" width="960" height="540" xmlns="http://www.w3.org/2000/svg" xmlns:xlink="http://www.w3.org/1999/xlink" version="1.1"><rect x="0" y="0" width="960" height="540" fill="#FFFFFF"></rect><g transform="translate(491.267974972801 252.9826348850867)"><path d="M114.3 -193.9C169.6 -166.1 250.7 -178.8 311.9 -153.2C373.1 -127.7 414.6 -63.8 393.3 -12.3C372.1 39.3 288.3 78.7 233.9 116.2C179.6 153.7 154.8 189.4 120.7 236.8C86.7 284.1 43.3 343.1 4.6 335.1C-34.2 327.2 -68.3 252.4 -120.3 215.4C-172.3 178.4 -242 179.2 -303.7 149.6C-365.3 120 -418.9 60 -421.4 -1.4C-423.8 -62.8 -375.2 -125.7 -317.2 -161.8C-259.3 -197.8 -192.2 -207.2 -137.7 -235.4C-83.3 -263.7 -41.7 -310.8 -6.1 -300.3C29.5 -289.8 59.1 -221.6 114.3 -193.9" fill="#009473"></path></g></svg>